PathFileType  4	(X/Y/Z) C:\Users\hpl\Documents\MyRepositories\mocap-processing\Data\treadmill\running\
DataRate	CameraRate	NumFrames	NumMarkers	Units	OrigDataRate	OrigDataStartFrame	OrigNumFrames
  200.0		  200.0		    9		     46		 mm	  200.0	      99	    785
Frame#	Time	r_knee			r_shank_antsup			r_ankle			r_calc			r_5meta			r_toe			L_knee			L_shank_antsup			L_ankle			L_calc			L_5meta			L_toe			r_sh2			r_sh3			r_sh4			L_sh2			L_sh3			r_thigh1			r_thigh2			r_thigh3			r_thigh4			r_thigh5			L_thigh1			L_thigh2			L_thigh3			L_thigh4			r.ASIS			r.PSIS			L.ASIS			L.PSIS			C7			R_Shoulder			L_Shoulder			Sternum			R_humerus			R_elbow_med			R_elbow_lat			R_forearm			R_wrist_radius			R_wrist_ulna			L_humerus			L_elbow_med			L_elbow_lat			L_forearm			L_wrist_radius			L_wrist_ulna			
		X1	Y1	Z1	X2	Y2	Z2	X3	Y3	Z3	X4	Y4	Z4	X5	Y5	Z5	X6	Y6	Z6	X7	Y7	Z7	X8	Y8	Z8	X9	Y9	Z9	X10	Y10	Z10	X11	Y11	Z11	X12	Y12	Z12	X13	Y13	Z13	X14	Y14	Z14	X15	Y15	Z15	X16	Y16	Z16	X17	Y17	Z17	X18	Y18	Z18	X19	Y19	Z19	X20	Y20	Z20	X21	Y21	Z21	X22	Y22	Z22	X23	Y23	Z23	X24	Y24	Z24	X25	Y25	Z25	X26	Y26	Z26	X27	Y27	Z27	X28	Y28	Z28	X29	Y29	Z29	X30	Y30	Z30	X31	Y31	Z31	X32	Y32	Z32	X33	Y33	Z33	X34	Y34	Z34	X35	Y35	Z35	X36	Y36	Z36	X37	Y37	Z37	X38	Y38	Z38	X39	Y39	Z39	X40	Y40	Z40	X41	Y41	Z41	X42	Y42	Z42	X43	Y43	Z43	X44	Y44	Z44	X45	Y45	Z45	X46	Y46	Z46	

99	0.49000	970.481	545.273	-158.755	1003.565	426.167	-157.348	989.552	97.854	-223.644	921.560	76.197	-295.175	1102.893	30.074	-196.112	1150.390	58.810	-253.071	767.392	501.130	-470.076	655.504	467.048	-470.737	352.898	525.630	-438.697	342.301	591.705	-393.944	252.874	390.582	-436.058	269.919	362.950	-362.630	1006.510	307.998	-175.168	930.234	421.391	-147.660	924.596	309.630	-178.381	662.188	555.746	-487.632	540.604	555.601	-469.567	975.100	781.505	-133.223	1006.886	673.450	-160.622	978.425	627.181	-142.456	872.844	738.413	-108.544	911.574	632.404	-140.928	892.226	699.385	-464.003	866.237	560.940	-452.262	782.676	717.473	-510.053	760.133	582.710	-477.989	882.552	1010.466	-167.104	681.728	1058.563	-256.766	892.415	1010.231	-433.022	687.899	1059.247	-363.081	804.813	1550.578	-301.355	796.879	1511.642	-112.628	876.364	1530.036	-473.244	948.401	1447.246	-272.827	677.263	1327.641	-39.705	552.129	1250.545	-118.849	546.298	1282.189	-34.200	683.916	1173.216	-15.825	771.149	1094.800	-22.273	732.462	1065.316	-0.535	809.234	1312.688	-592.601	669.639	1223.562	-563.421	723.826	1259.476	-638.792	855.266	1181.764	-569.567	928.476	1173.865	-478.289	922.347	1113.713	-516.414
100	0.49500	968.506	540.830	-159.181	997.790	419.794	-158.300	970.583	99.192	-227.184	899.120	72.520	-296.547	1082.212	31.884	-198.531	1128.721	54.222	-258.794	778.410	496.562	-471.689	666.641	463.593	-472.115	365.303	528.098	-439.471	354.959	594.059	-394.254	264.909	393.728	-438.291	281.305	365.583	-364.560	996.090	301.857	-177.209	924.678	417.210	-147.077	914.330	306.035	-177.865	674.806	552.442	-488.300	553.413	553.633	-470.179	973.985	777.095	-133.547	1006.523	669.168	-158.775	977.016	622.979	-142.341	871.636	733.917	-108.041	910.782	628.140	-141.147	897.302	696.471	-465.087	874.860	557.321	-453.922	787.107	712.454	-511.332	768.606	576.223	-478.432	881.181	1006.849	-166.581	680.703	1054.312	-257.339	890.597	1005.321	-433.011	686.239	1054.801	-363.015	804.118	1546.235	-300.635	797.292	1506.259	-111.338	875.212	1526.077	-472.894	948.236	1442.639	-273.029	680.951	1319.693	-36.731	555.746	1241.192	-114.090	550.793	1273.006	-29.133	690.126	1166.182	-12.739	778.565	1089.349	-20.219	740.526	1059.140	1.873	804.942	1308.617	-591.195	665.154	1220.808	-561.098	719.489	1256.148	-637.057	850.729	1175.782	-570.297	925.036	1165.791	-480.132	917.569	1106.185	-518.709
101	0.50000	966.311	535.943	-160.040	992.314	413.025	-160.353	949.500	98.263	-230.929	877.405	68.551	-302.437	1059.917	32.328	-200.337	1107.317	52.919	-260.649	789.522	492.158	-473.736	678.339	460.262	-473.263	378.173	529.736	-440.166	367.682	595.541	-394.771	277.603	395.537	-440.202	293.671	367.070	-366.720	985.165	295.597	-181.081	919.666	413.012	-146.215	903.924	303.218	-178.926	687.533	549.164	-489.290	566.039	552.087	-471.488	972.427	772.424	-133.843	1005.620	664.383	-157.213	975.337	618.410	-142.029	870.063	729.111	-107.538	909.604	623.446	-140.973	902.159	693.297	-466.662	883.500	554.156	-455.774	791.898	706.470	-511.316	777.012	570.554	-479.180	880.312	1003.378	-166.205	679.355	1050.186	-257.550	888.762	1000.115	-432.980	684.694	1050.162	-362.622	803.212	1541.411	-299.827	797.909	1500.918	-110.050	873.566	1521.838	-473.003	948.110	1437.720	-273.281	685.082	1311.562	-33.831	559.709	1231.598	-108.962	555.315	1263.534	-24.290	696.767	1158.917	-9.660	786.098	1083.805	-18.419	749.034	1052.962	4.200	800.718	1304.393	-589.665	662.073	1217.454	-559.195	715.129	1252.858	-635.424	846.141	1169.649	-571.071	921.579	1157.506	-481.813	912.413	1098.443	-521.086
102	0.50500	964.139	530.729	-161.449	988.394	406.854	-162.943	926.566	97.427	-235.818	855.415	67.644	-305.705	1037.687	32.465	-201.520	1085.807	52.198	-261.591	800.841	488.285	-475.394	690.474	457.096	-474.747	391.493	531.038	-441.936	380.609	596.025	-395.326	290.856	396.026	-442.104	306.446	367.124	-368.943	975.132	289.861	-185.585	916.228	408.958	-146.486	894.365	301.540	-181.340	700.577	545.722	-490.704	579.302	550.042	-472.895	969.932	767.180	-133.355	1003.880	659.408	-155.913	973.020	613.237	-141.629	867.848	723.931	-106.508	907.587	618.670	-141.579	907.063	691.466	-467.794	893.173	552.147	-457.511	796.013	701.610	-512.187	785.384	565.472	-480.136	879.218	999.781	-166.048	677.976	1046.225	-257.552	886.812	994.785	-432.879	683.080	1045.711	-362.259	802.389	1536.733	-299.017	798.811	1495.522	-108.708	872.118	1517.606	-472.943	947.931	1432.694	-273.578	689.431	1303.224	-30.774	563.858	1221.921	-103.982	560.375	1254.089	-19.292	703.557	1151.710	-6.553	793.897	1078.254	-16.571	757.593	1046.825	6.428	796.352	1300.112	-588.064	658.152	1214.234	-557.340	710.499	1249.410	-633.951	841.424	1163.344	-571.979	917.735	1148.973	-483.844	907.372	1090.620	-523.653
103	0.51000	962.126	525.530	-163.055	985.692	400.446	-168.175	906.777	98.487	-239.406	834.071	67.858	-308.088	1015.804	32.823	-202.649	1064.989	50.744	-262.677	812.682	484.733	-477.041	702.993	453.657	-476.010	404.672	530.866	-442.729	393.365	595.465	-395.817	304.704	395.725	-444.460	320.012	366.143	-371.097	966.622	285.053	-190.802	914.862	406.387	-147.838	886.452	301.065	-185.020	713.899	542.130	-492.115	592.774	548.325	-474.227	966.851	761.660	-132.252	1000.438	654.022	-155.534	969.724	607.641	-141.827	864.981	718.195	-105.261	904.086	613.940	-142.911	911.953	689.796	-469.297	901.454	549.565	-460.031	800.547	697.313	-512.953	795.016	560.178	-480.684	877.837	996.030	-166.256	676.140	1042.537	-257.200	884.644	989.433	-432.658	681.303	1041.516	-361.830	801.296	1531.875	-298.274	799.884	1490.307	-107.127	870.704	1513.397	-472.735	947.868	1427.603	-273.959	694.051	1294.724	-28.190	568.307	1212.352	-98.876	565.782	1244.431	-13.994	710.882	1144.482	-3.593	802.001	1072.790	-14.741	766.499	1040.617	8.725	791.634	1295.658	-586.333	654.310	1210.888	-555.333	705.997	1245.920	-632.303	836.527	1156.899	-572.926	913.813	1140.481	-485.728	901.716	1082.559	-526.253
104	0.51500	959.907	520.982	-165.010	983.902	395.793	-173.426	888.137	99.466	-242.418	813.494	69.121	-311.291	993.684	32.928	-203.307	1044.021	50.592	-262.737	824.795	481.639	-478.623	715.459	450.919	-477.698	417.936	529.414	-443.245	406.088	593.875	-396.240	319.057	394.773	-446.491	334.133	363.972	-373.210	959.732	281.815	-196.483	914.217	404.475	-150.821	880.033	300.595	-187.170	727.701	538.554	-492.846	607.037	545.899	-476.398	963.245	756.085	-129.479	995.640	648.408	-155.255	964.742	602.003	-140.822	860.484	713.879	-106.070	899.187	610.145	-144.460	916.813	688.938	-470.825	911.508	549.140	-461.899	804.639	693.695	-513.766	804.286	556.039	-481.656	876.194	992.535	-166.552	674.001	1039.029	-256.604	882.296	983.891	-432.318	679.337	1037.292	-361.453	800.203	1527.229	-297.528	801.204	1485.180	-105.640	869.167	1509.324	-472.863	947.816	1422.407	-274.397	698.959	1286.223	-25.559	573.063	1202.620	-93.707	571.531	1235.004	-8.824	718.528	1137.266	-0.639	810.243	1067.361	-13.061	775.605	1034.497	10.907	786.754	1291.254	-584.417	650.487	1207.511	-553.103	701.399	1242.363	-630.525	831.503	1150.423	-574.000	909.542	1132.015	-487.952	895.971	1074.518	-528.962
105	0.52000	957.590	516.798	-166.574	980.242	393.755	-178.819	868.231	100.579	-244.635	793.099	70.265	-313.237	971.933	33.140	-204.433	1022.493	49.959	-263.336	837.140	479.175	-480.022	728.939	448.037	-478.914	431.200	527.159	-444.285	418.498	591.312	-396.540	333.847	391.781	-448.524	348.919	360.523	-375.392	952.129	280.433	-200.745	911.270	404.611	-153.433	873.084	301.320	-187.156	741.257	535.789	-494.325	619.653	543.342	-476.649	961.197	750.679	-125.055	991.043	643.111	-154.150	958.802	596.966	-140.918	855.774	710.415	-108.189	893.827	606.807	-146.528	921.803	689.135	-472.084	920.299	548.768	-463.444	809.351	690.911	-514.429	813.312	553.168	-483.219	874.399	989.202	-166.995	671.629	1035.864	-255.715	880.294	978.743	-431.633	677.587	1033.414	-361.091	799.060	1522.739	-296.645	802.708	1480.303	-104.096	866.487	1505.594	-472.808	947.778	1417.288	-274.910	704.339	1277.800	-23.124	578.469	1192.805	-88.105	577.589	1225.576	-3.626	726.500	1130.278	2.026	818.529	1062.279	-11.232	784.981	1028.492	13.083	781.645	1287.000	-582.405	646.356	1204.458	-551.119	696.308	1239.324	-629.201	826.274	1143.964	-575.173	905.112	1123.531	-490.296	889.889	1066.532	-531.672
106	0.52500	955.450	514.567	-169.564	972.815	394.727	-182.869	847.945	101.390	-246.647	772.315	71.576	-314.536	950.263	33.152	-205.217	1001.176	50.067	-264.261	849.803	477.593	-481.327	742.300	445.997	-480.475	444.190	524.033	-444.724	430.502	587.836	-396.813	349.037	387.543	-450.662	364.389	355.911	-377.579	942.106	280.564	-202.289	903.967	406.275	-156.042	863.717	302.803	-186.682	755.004	533.324	-496.163	633.267	540.818	-477.801	959.587	745.183	-121.380	986.826	638.103	-154.306	953.470	592.375	-143.426	852.319	707.406	-109.790	888.438	602.904	-148.886	926.691	690.164	-472.997	930.719	550.365	-465.203	814.208	688.674	-515.134	823.637	550.986	-484.278	872.529	985.965	-167.264	669.439	1033.404	-254.512	877.855	973.693	-430.814	675.369	1030.215	-360.769	798.012	1518.602	-295.998	804.438	1475.707	-102.744	864.633	1501.723	-473.131	947.889	1412.221	-275.577	709.869	1269.530	-20.911	583.891	1182.914	-82.653	584.179	1216.507	1.450	735.088	1123.614	4.312	827.459	1056.986	-10.227	795.299	1023.443	14.268	776.560	1282.770	-580.416	642.591	1201.070	-548.682	691.648	1235.565	-626.760	821.006	1137.558	-576.457	900.743	1115.412	-492.800	883.657	1058.753	-534.445
107	0.53000	952.603	512.721	-171.133	963.964	394.043	-183.258	827.937	102.336	-246.880	751.435	72.833	-315.254	928.714	33.209	-205.511	979.708	49.561	-264.644	862.839	477.110	-482.446	755.913	444.266	-481.766	457.041	520.052	-445.165	441.988	583.419	-396.997	364.681	382.026	-452.499	380.271	350.202	-379.712	930.465	280.418	-201.785	894.914	407.517	-158.031	852.955	303.895	-186.486	768.263	531.846	-498.088	646.669	538.643	-478.829	956.940	741.092	-120.618	982.965	634.444	-156.042	949.436	589.080	-145.732	848.655	704.092	-110.646	884.128	599.910	-150.329	931.549	692.159	-473.634	940.444	552.518	-466.351	819.237	687.243	-516.345	833.704	549.825	-485.922	870.815	982.610	-167.189	667.405	1031.094	-253.497	875.549	969.191	-430.210	672.621	1027.491	-359.800	797.429	1514.834	-295.091	806.328	1471.393	-101.404	862.630	1498.142	-473.527	947.932	1407.334	-276.446	715.638	1261.537	-18.956	589.155	1173.916	-77.672	591.390	1207.728	6.735	743.920	1117.253	6.309	836.323	1052.545	-9.255	805.251	1018.234	15.727	771.527	1278.784	-578.289	638.487	1198.242	-546.418	686.677	1232.592	-624.793	815.586	1131.366	-577.876	895.787	1107.738	-495.330	877.095	1051.448	-537.201
